{
  "streams": [
    {
      "index": 0,
      "codec_name": "h264",
      "codec_long_name": "H.264 / AVC / MPEG-4 AVC / MPEG-4 part 10",
      "profile": "High",
      "codec_type": "video",
      "codec_time_base": "1001/48000",
      "codec_tag_string": "[0][0][0][0]",
      "codec_tag": "0x0000",
      "width": 1920,
      "height": 816,
      "coded_width": 1920,
      "coded_height": 816,
      "has_b_frames": 2,
      "sample_aspect_ratio": "1:1",
      "display_aspect_ratio": "40:17",
      "pix_fmt": "yuv420p",
      "level": 41,
      "color_range": "N/A",
      "color_space": "unknown",
      "color_transfer": "unknown",
      "color_primaries": "unknown",
      "chroma_location": "left",
      "timecode": "N/A",
      "refs": 1,
      "is_avc": "true",
      "nal_length_size": 4,
      "id": "N/A",
      "r_frame_rate": "24000/1001",
      "avg_frame_rate": "24000/1001",
      "time_base": "1/1000",
      "start_pts": 0,
      "start_time": 0,
      "duration_ts": "N/A",
      "duration": "N/A",
      "bit_rate": "N/A",
      "max_bit_rate": "N/A",
      "bits_per_raw_sample": 8,
      "nb_frames": "N/A",
      "nb_read_frames": "N/A",
      "nb_read_packets": "N/A",
      "tags": {
        "language": "eng",
        "title": "@7163Kbps High Profiles @L4.1"
      },
      "disposition": {
        "default": 1,
        "dub": 0,
        "original": 0,
        "comment": 0,
        "lyrics": 0,
        "karaoke": 0,
        "forced": 0,
        "hearing_impaired": 0,
        "visual_impaired": 0,
        "clean_effects": 0,
        "attached_pic": 0
      }
    },
    {
      "index": 1,
      "codec_name": "ac3",
      "codec_long_name": "ATSC A/52A (AC-3)",
      "profile": "unknown",
      "codec_type": "audio",
      "codec_time_base": "1/48000",
      "codec_tag_string": "[0][0][0][0]",
      "codec_tag": "0x0000",
      "sample_fmt": "fltp",
      "sample_rate": 48000,
      "channels": 2,
      "channel_layout": "stereo",
      "bits_per_sample": 0,
      "dmix_mode": "-1",
      "ltrt_cmixlev": "-1.000000",
      "ltrt_surmixlev": "-1.000000",
      "loro_cmixlev": "-1.000000",
      "loro_surmixlev": "-1.000000",
      "id": "N/A",
      "r_frame_rate": "0/0",
      "avg_frame_rate": "0/0",
      "time_base": "1/1000",
      "start_pts": 0,
      "start_time": 0,
      "duration_ts": "N/A",
      "duration": "N/A",
      "bit_rate": 192000,
      "max_bit_rate": "N/A",
      "bits_per_raw_sample": "N/A",
      "nb_frames": "N/A",
      "nb_read_frames": "N/A",
      "nb_read_packets": "N/A",
      "tags": {
        "language": "eng",
        "title": "AC3@192Kbps 2 chnls"
      },
      "disposition": {
        "default": 1,
        "dub": 0,
        "original": 0,
        "comment": 0,
        "lyrics": 0,
        "karaoke": 0,
        "forced": 0,
        "hearing_impaired": 0,
        "visual_impaired": 0,
        "clean_effects": 0,
        "attached_pic": 0
      }
    },
    {
      "index": 2,
      "codec_name": "ac3",
      "codec_long_name": "ATSC A/52A (AC-3)",
      "profile": "unknown",
      "codec_type": "audio",
      "codec_time_base": "1/48000",
      "codec_tag_string": "[0][0][0][0]",
      "codec_tag": "0x0000",
      "sample_fmt": "fltp",
      "sample_rate": 48000,
      "channels": 2,
      "channel_layout": "stereo",
      "bits_per_sample": 0,
      "dmix_mode": "-1",
      "ltrt_cmixlev": "-1.000000",
      "ltrt_surmixlev": "-1.000000",
      "loro_cmixlev": "-1.000000",
      "loro_surmixlev": "-1.000000",
      "id": "N/A",
      "r_frame_rate": "0/0",
      "avg_frame_rate": "0/0",
      "time_base": "1/1000",
      "start_pts": 0,
      "start_time": 0,
      "duration_ts": "N/A",
      "duration": "N/A",
      "bit_rate": 192000,
      "max_bit_rate": "N/A",
      "bits_per_raw_sample": "N/A",
      "nb_frames": "N/A",
      "nb_read_frames": "N/A",
      "nb_read_packets": "N/A",
      "tags": {
        "language": "tur",
        "title": "AC3@192Kbps 2 chnls"
      },
      "disposition": {
        "default": 0,
        "dub": 0,
        "original": 0,
        "comment": 0,
        "lyrics": 0,
        "karaoke": 0,
        "forced": 0,
        "hearing_impaired": 0,
        "visual_impaired": 0,
        "clean_effects": 0,
        "attached_pic": 0
      }
    },
    {
      "index": 3,
      "codec_name": "subrip",
      "codec_long_name": "SubRip subtitle",
      "profile": "unknown",
      "codec_type": "subtitle",
      "codec_time_base": "1/1000",
      "codec_tag_string": "[0][0][0][0]",
      "codec_tag": "0x0000",
      "width": "N/A",
      "height": "N/A",
      "id": "N/A",
      "r_frame_rate": "0/0",
      "avg_frame_rate": "0/0",
      "time_base": "1/1000",
      "start_pts": 0,
      "start_time": 0,
      "duration_ts": 6636768,
      "duration": 6636.768,
      "bit_rate": "N/A",
      "max_bit_rate": "N/A",
      "bits_per_raw_sample": "N/A",
      "nb_frames": "N/A",
      "nb_read_frames": "N/A",
      "nb_read_packets": "N/A",
      "tags": {
        "language": "eng"
      },
      "disposition": {
        "default": 1,
        "dub": 0,
        "original": 0,
        "comment": 0,
        "lyrics": 0,
        "karaoke": 0,
        "forced": 0,
        "hearing_impaired": 0,
        "visual_impaired": 0,
        "clean_effects": 0,
        "attached_pic": 0
      }
    },
    {
      "index": 4,
      "codec_name": "subrip",
      "codec_long_name": "SubRip subtitle",
      "profile": "unknown",
      "codec_type": "subtitle",
      "codec_time_base": "1/1000",
      "codec_tag_string": "[0][0][0][0]",
      "codec_tag": "0x0000",
      "width": "N/A",
      "height": "N/A",
      "id": "N/A",
      "r_frame_rate": "0/0",
      "avg_frame_rate": "0/0",
      "time_base": "1/1000",
      "start_pts": 0,
      "start_time": 0,
      "duration_ts": 6636768,
      "duration": 6636.768,
      "bit_rate": "N/A",
      "max_bit_rate": "N/A",
      "bits_per_raw_sample": "N/A",
      "nb_frames": "N/A",
      "nb_read_frames": "N/A",
      "nb_read_packets": "N/A",
      "tags": {
        "language": "tur"
      },
      "disposition": {
        "default": 0,
        "dub": 0,
        "original": 0,
        "comment": 0,
        "lyrics": 0,
        "karaoke": 0,
        "forced": 0,
        "hearing_impaired": 0,
        "visual_impaired": 0,
        "clean_effects": 0,
        "attached_pic": 0
      }
    },
    {
      "index": 5,
      "codec_name": "subrip",
      "codec_long_name": "SubRip subtitle",
      "profile": "unknown",
      "codec_type": "subtitle",
      "codec_time_base": "1/1000",
      "codec_tag_string": "[0][0][0][0]",
      "codec_tag": "0x0000",
      "width": "N/A",
      "height": "N/A",
      "id": "N/A",
      "r_frame_rate": "0/0",
      "avg_frame_rate": "0/0",
      "time_base": "1/1000",
      "start_pts": 0,
      "start_time": 0,
      "duration_ts": 6636768,
      "duration": 6636.768,
      "bit_rate": "N/A",
      "max_bit_rate": "N/A",
      "bits_per_raw_sample": "N/A",
      "nb_frames": "N/A",
      "nb_read_frames": "N/A",
      "nb_read_packets": "N/A",
      "tags": {
        "language": "rus"
      },
      "disposition": {
        "default": 0,
        "dub": 0,
        "original": 0,
        "comment": 0,
        "lyrics": 0,
        "karaoke": 0,
        "forced": 0,
        "hearing_impaired": 0,
        "visual_impaired": 0,
        "clean_effects": 0,
        "attached_pic": 0
      }
    }
  ],
  "format": {
    "filename": "e:\\movie\\Bird on a Wire\\[1990] Bird on a Wire.mkv",
    "nb_streams": 6,
    "nb_programs": 0,
    "format_name": "matroska,webm",
    "format_long_name": "Matroska / WebM",
    "start_time": 0,
    "duration": 6636.768,
    "size": 6255858632,
    "bit_rate": 7540849,
    "probe_score": 100,
    "tags": {
      "encoder": "libebml v1.3.0 + libmatroska v1.4.1",
      "creation_time": "2017-02-09 08:05:16"
    }
  },
  "chapters": []
}